<svg viewBox="0 0 520 580" xmlns="http://www.w3.org/2000/svg" style="width:100%;height:100%;display:block;">
  <title>TechQuarter — Solar Ops Hero Illustration (v3)</title>
  <desc>Enhanced constellation diagram with floating stat cards (700+ AI Ops, 400+ Automations, 580+ Sales Portal). Animated pulse rings and data flow packets.</desc>
  <defs><radialGradient id="sg"><stop offset="0%" stop-color="#fbae17" stop-opacity=".28"/><stop offset="65%" stop-color="#f6921e" stop-opacity=".08"/><stop offset="100%" stop-color="#f6921e" stop-opacity="0"/></radialGradient><filter id="gl"><feGaussianBlur stdDeviation="3" result="b"/><feMerge><feMergeNode in="b"/><feMergeNode in="SourceGraphic"/></feMerge></filter><filter id="glb"><feGaussianBlur stdDeviation="7" result="b"/><feMerge><feMergeNode in="b"/><feMergeNode in="SourceGraphic"/></feMerge></filter></defs><circle cx="260" cy="240" r="175" fill="url(#sg)"/><g stroke="#fbae17" stroke-width=".9" opacity=".38"><line x1="260" y1="240" x2="260" y2="28"/><line x1="260" y1="240" x2="260" y2="452"/><line x1="260" y1="240" x2="48" y2="240"/><line x1="260" y1="240" x2="472" y2="240"/><line x1="260" y1="240" x2="111" y2="91"/><line x1="260" y1="240" x2="409" y2="389"/><line x1="260" y1="240" x2="409" y2="91"/><line x1="260" y1="240" x2="111" y2="389"/><line x1="260" y1="240" x2="160" y2="38"/><line x1="260" y1="240" x2="360" y2="442"/><line x1="260" y1="240" x2="462" y2="140"/><line x1="260" y1="240" x2="58" y2="340"/><line x1="260" y1="240" x2="462" y2="340"/><line x1="260" y1="240" x2="58" y2="140"/></g><circle cx="260" cy="240" r="90" fill="none" stroke="#fbae17" stroke-width=".7" stroke-dasharray="4 9" opacity=".35"/><circle cx="260" cy="240" r="142" fill="none" stroke="#f6921e" stroke-width=".55" stroke-dasharray="3 13" opacity=".22"/><circle cx="260" cy="240" r="194" fill="none" stroke="#fbae17" stroke-width=".4" stroke-dasharray="2 17" opacity=".14"/><g stroke="rgba(251,174,23,.09)" stroke-width=".5"><line x1="0" y1="115" x2="520" y2="115"/><line x1="0" y1="175" x2="520" y2="175"/><line x1="0" y1="305" x2="520" y2="305"/><line x1="0" y1="365" x2="520" y2="365"/><line x1="86" y1="0" x2="86" y2="580"/><line x1="172" y1="0" x2="172" y2="580"/><line x1="348" y1="0" x2="348" y2="580"/><line x1="434" y1="0" x2="434" y2="580"/></g><g fill="rgba(251,174,23,.38)"><circle cx="86" cy="115" r="2.8"/><circle cx="172" cy="115" r="2.2"/><circle cx="348" cy="115" r="2.8"/><circle cx="434" cy="115" r="2.2"/><circle cx="86" cy="175" r="2.2"/><circle cx="172" cy="175" r="2.8"/><circle cx="348" cy="175" r="2.2"/><circle cx="434" cy="175" r="2.8"/><circle cx="86" cy="305" r="2.2"/><circle cx="348" cy="305" r="2.8"/><circle cx="434" cy="305" r="2.2"/><circle cx="86" cy="365" r="2.8"/><circle cx="348" cy="365" r="2.2"/><circle cx="434" cy="365" r="2.8"/></g><circle cx="260" cy="240" r="36" fill="none" stroke="#fbae17" stroke-width="1.5" opacity=".7" filter="url(#gl)"/><circle cx="260" cy="240" r="21" fill="none" stroke="#ffc132" stroke-width="1.8" opacity=".85"/><circle cx="260" cy="240" r="10" fill="#fbae17" opacity="1" filter="url(#glb)"/><g filter="url(#gl)"><circle cx="260" cy="150" r="5.5" fill="#fbae17" opacity=".95"/><circle cx="350" cy="262" r="4.5" fill="#ffc132" opacity=".88"/><circle cx="170" cy="218" r="4.5" fill="#f6921e" opacity=".84"/><circle cx="120" cy="240" r="5.8" fill="#fbae17" opacity=".8"/><circle cx="404" cy="178" r="4.8" fill="#f6921e" opacity=".75"/><circle cx="375" cy="340" r="4.5" fill="#ffc132" opacity=".7"/><circle cx="155" cy="336" r="5" fill="#fbae17" opacity=".7"/></g><g stroke="#fbae17" stroke-width=".85" opacity=".32" fill="none"><polyline points="260,150 260,115 86,115 86,240 120,240"/><polyline points="350,262 348,305 434,305 434,178 404,178"/><polyline points="170,218 172,175 86,175"/><polyline points="375,340 348,365 155,336"/></g><g transform="translate(374,64)" opacity=".9"><rect width="126" height="56" rx="5" fill="#0d0d18" stroke="#fbae17" stroke-width="1.2" stroke-opacity=".55"/><rect width="126" height="3" rx="1.5" fill="#fbae17" opacity=".8"/><text x="9" y="19" font-family="IBM Plex Mono" font-size="8.5" fill="#fbae17" opacity=".85">AI OPS</text><text x="9" y="38" font-family="IBM Plex Mono" font-size="19" fill="white" font-weight="bold">700+</text><text x="9" y="50" font-family="IBM Plex Sans" font-size="7.5" fill="#556">Jobs monitored</text><circle cx="114" cy="13" r="3.8" fill="#28b473"/></g><g transform="translate(32,285)" opacity=".86"><rect width="135" height="56" rx="5" fill="#0d0d18" stroke="#60a5fa" stroke-width="1.2" stroke-opacity=".5"/><rect width="135" height="3" rx="1.5" fill="#60a5fa" opacity=".75"/><text x="9" y="19" font-family="IBM Plex Mono" font-size="8.5" fill="#60a5fa" opacity=".85">AUTOMATIONS</text><text x="9" y="38" font-family="IBM Plex Mono" font-size="19" fill="white" font-weight="bold">400+</text><text x="9" y="50" font-family="IBM Plex Sans" font-size="7.5" fill="#556">Apps automated</text></g><g transform="translate(358,382)" opacity=".82"><rect width="135" height="56" rx="5" fill="#0d0d18" stroke="#a78bfa" stroke-width="1.2" stroke-opacity=".5"/><rect width="135" height="3" rx="1.5" fill="#a78bfa" opacity=".75"/><text x="9" y="19" font-family="IBM Plex Mono" font-size="8.5" fill="#a78bfa" opacity=".85">SALES PORTAL</text><text x="9" y="38" font-family="IBM Plex Mono" font-size="19" fill="white" font-weight="bold">580+</text><text x="9" y="50" font-family="IBM Plex Sans" font-size="7.5" fill="#556">Active users</text></g><circle cx="260" cy="240" r="50" fill="none" stroke="#fbae17" stroke-width="1.1" opacity=".5"><animate attributeName="r" values="50;88;50" dur="4s" repeatCount="indefinite"/><animate attributeName="opacity" values=".5;0;.5" dur="4s" repeatCount="indefinite"/></circle><circle cx="260" cy="240" r="50" fill="none" stroke="#fbae17" stroke-width=".7" opacity=".3"><animate attributeName="r" values="50;112;50" dur="4s" begin="1.9s" repeatCount="indefinite"/><animate attributeName="opacity" values=".3;0;.3" dur="4s" begin="1.9s" repeatCount="indefinite"/></circle><circle r="3" fill="#fbae17" opacity=".95" filter="url(#gl)"><animateMotion dur="6s" repeatCount="indefinite" path="M260,240 L260,115 L86,115 L86,240 L260,240"/></circle><circle r="2.5" fill="#ffc132" opacity=".88" filter="url(#gl)"><animateMotion dur="5.2s" begin="1.8s" repeatCount="indefinite" path="M260,240 L434,178 L434,305 L348,305 L260,240"/></circle><circle r="2" fill="#f6921e" opacity=".8" filter="url(#gl)"><animateMotion dur="7.5s" begin=".9s" repeatCount="indefinite" path="M260,240 L172,115 L86,175 L86,365 L172,365 L260,240"/></circle></svg>